<svg id="Layer_1" enable-background="new 0 0 512 512" height="512" viewBox="0 0 512 512" width="512" xmlns="http://www.w3.org/2000/svg"><g><g><g><g><g><g id="XMLID_1074_"><g id="XMLID_1075_"><g id="XMLID_1076_"><g id="XMLID_1077_"><g id="XMLID_1078_"><g id="XMLID_1079_"><g id="XMLID_1080_"><g id="XMLID_1081_"><g id="XMLID_1082_"><g id="XMLID_1083_"><g id="XMLID_1084_"><g id="XMLID_1085_"><g id="XMLID_1086_"><g id="XMLID_1116_"><g id="XMLID_1117_"><circle cx="256" cy="256" fill="#0a617d" r="256"/></g></g></g></g></g></g></g></g></g></g></g></g></g></g></g></g></g></g></g><path d="m512 256c0-5.635-.182-11.227-.541-16.771l-161.199-161.199-252.092 341.943 79.972 79.972c24.552 7.829 50.712 12.055 77.86 12.055 141.385 0 256-114.615 256-256z" fill="#08475e"/><g><path d="m98.168 78.027h252.089v341.945h-252.089z" fill="#ffd845"/><path d="m225.15 78.03h125.11v341.94h-125.11z" fill="#ffb454"/><g><g><g><path d="m138.979 248.111h172.341v30h-172.341z" fill="#0a617d"/></g></g><g><g><path d="m225.15 248.11h86.17v30h-86.17z" fill="#08475e"/></g></g><g><g><path d="m138.979 314.179h172.341v30h-172.341z" fill="#0a617d"/></g></g><g><g><path d="m225.15 314.18h86.17v30h-86.17z" fill="#08475e"/></g></g><path d="m144.139 160.44 4.436 2.582c-.205 1.37-.311 2.772-.311 4.199s.107 2.829.311 4.199l-4.436 2.582c-4.954 2.883-6.633 9.237-3.749 14.191 2.883 4.954 9.237 6.633 14.191 3.749l4.438-2.583c2.117 1.667 4.48 3.036 7.024 4.046v5.128c0 5.732 4.647 10.379 10.379 10.379s10.379-4.647 10.379-10.379v-5.128c2.544-1.009 4.906-2.379 7.024-4.046l4.438 2.583c4.954 2.883 11.308 1.205 14.191-3.749 2.883-4.954 1.205-11.308-3.749-14.191l-4.436-2.582c.205-1.37.311-2.772.311-4.199s-.107-2.829-.311-4.199l4.436-2.582c4.954-2.883 6.633-9.237 3.749-14.191-2.883-4.954-9.237-6.633-14.191-3.749l-4.438 2.583c-2.117-1.667-4.48-3.036-7.024-4.046v-5.128c0-5.732-4.647-10.379-10.379-10.379s-10.379 4.647-10.379 10.379v5.128c-2.544 1.009-4.907 2.379-7.024 4.046l-4.438-2.583c-4.954-2.883-11.308-1.205-14.191 3.749-2.884 4.953-1.205 11.307 3.749 14.191z" fill="#ff4a4a"/></g></g><path d="m452 333.604-60.33-66.522v-94.09h-82.824v94.09l-60.33 66.522c-4.819 5.314-7.488 12.23-7.488 19.404 0 15.952 12.931 28.883 28.883 28.883h160.695c15.952 0 28.883-12.931 28.883-28.883-.001-7.174-2.67-14.09-7.489-19.404z" fill="#fff"/><path d="m459.49 353.01c0 15.95-12.93 28.88-28.88 28.88h-80.35v-208.9h41.41v94.09l60.33 66.52c4.82 5.32 7.49 12.23 7.49 19.41z" fill="#d8f1fb"/><path d="m299.225 147.437h102.064v51.11h-102.064z" fill="#71f4e4"/><path d="m350.26 147.44h51.03v51.11h-51.03z" fill="#1ed3c6"/><path d="m362.799 280.906h-25.083l-53.982 59.08c-4.059 4.442-.907 11.591 5.11 11.591h122.826c6.017 0 9.169-7.149 5.11-11.591z" fill="#ff4a4a"/><path d="m411.67 351.58h-61.41v-70.67h12.54l53.98 59.08c4.06 4.44.91 11.59-5.11 11.59z" fill="#d01273"/></g></svg>